<svg version="1.2" xmlns="http://www.w3.org/2000/svg" viewBox="0 0 256 256" width="256" height="256">
	<title>New Project</title>
	<style>
		.s0 { fill: none;stroke: #000000;stroke-miterlimit:100;stroke-width: 2 } 
	</style>
	<path id="Shape 1" fill-rule="evenodd" class="s0" d="m148 186c-43.1 0-78-34.9-78-78 0-43.1 34.9-78 78-78 43.1 0 78 34.9 78 78 0 43.1-34.9 78-78 78z"/>
	<path id="Shape 2" fill-rule="evenodd" class="s0" d="m148 198c-49.8 0-90-40.2-90-90 0-49.8 40.2-90 90-90 49.8 0 90 40.2 90 90 0 49.8-40.2 90-90 90z"/>
	<path id="Shape 3" fill-rule="evenodd" class="s0" d="m80.6 169.1l7.9 8.3c5.9 2.7-0.1-0.2 5.9 2.6l-52.4 52.4c-5 5-13.3 5-18.4 0-5-5.1-5-13.4 0-18.4l52.4-52.4c2.9 6.1-0.5 2.4 4.6 7.5z"/>
</svg>